<svg width="24" height="24" viewBox="0 0 24 24" fill="none" xmlns="http://www.w3.org/2000/svg">
<path d="M13.902 1.74225V3.651C16.452 3.66525 19.242 3.62475 21.7927 3.66525C21.8827 3.64961 21.9751 3.65516 22.0625 3.68147C22.15 3.70777 22.2301 3.75411 22.2965 3.8168C22.3629 3.87949 22.4138 3.9568 22.4451 4.04259C22.4763 4.12838 22.4872 4.22028 22.4767 4.311C22.5173 9.0105 22.467 13.9785 22.5007 18.6788C22.4858 18.9787 22.5075 19.5173 22.461 19.8165C22.4018 20.1983 22.2315 20.2717 21.8483 20.3235C21.6338 20.3527 21.2752 20.349 21.0645 20.3588C18.9705 20.3483 16.878 20.3505 14.784 20.3512H13.9028V22.2615L1.5 20.3497V3.65475L13.902 1.7415" fill="#283C82"/>
<path d="M13.902 4.3665H21.777V19.635H13.902V17.7262H20.1045V16.7723H13.902V15.5798H20.1045V14.625H13.902V13.4325H20.1045V12.4777H13.902V11.2853H20.1045V10.3305H13.902V9.138H20.1045V8.18325H13.902V6.99075H20.1045V6.036H13.902V4.3665ZM6.4297 8.58225C6.8797 8.556 7.33645 8.53725 7.78945 8.51325C8.1067 10.1235 8.43145 11.7315 8.77495 13.335C9.0442 11.679 9.3427 10.0282 9.63145 8.37525C10.1081 8.35816 10.5844 8.33316 11.0602 8.30025C10.521 10.6118 10.0485 12.9427 9.4597 15.2407C9.06145 15.4485 8.4652 15.231 7.9927 15.2648C7.67545 13.6853 7.3057 12.1147 7.02145 10.5292C6.74245 12.075 6.37945 13.5997 6.05995 15.1312C5.60195 15.1072 5.1422 15.0795 4.6807 15.048C4.2847 12.948 3.8197 10.8637 3.44995 8.75925C3.85795 8.7405 4.2682 8.72325 4.6762 8.709C4.9222 10.2285 5.2012 11.7412 5.4157 13.263C5.7517 11.703 6.09595 10.1422 6.4297 8.58225Z" fill="white"/>
</svg>
